<svg width="772" height="244" viewBox="0 0 772 244" fill="none" xmlns="http://www.w3.org/2000/svg">
	<path d="M740.068 237.914C740.068 374.041 613.395 405.925 557.521 405.925C501.646 405.925 394.075 375.636 385.546 237.914C377.016 100.206 270.093 77.5037 270.093 77.5037C270.093 77.5037 37.4458 16.4375 35.3422 240.5C35.3278 241.003 35.3279 241.52 35.3279 242.009C34.3481 464.261 274.733 396.082 274.733 396.082C285.971 418.598 301.157 440.926 321.545 460.927C288.19 474.017 251.132 481 212.245 481C149.022 481 93.2195 464.534 49.7503 434.59C15.3006 410.867 -11.3832 378.668 -27.9381 339.499C-33.1106 327.257 -37.2746 314.354 -40.3867 300.805C-44.6227 282.341 -46.8847 262.714 -47 242.009V240.5C-47 124.776 32.72 39.9732 135.464 10.9632C146.112 7.93142 157.019 5.51751 168.113 3.75018C183.414 1.26443 199.076 0 214.925 0C274.445 0 327.366 14.699 369.639 41.4675C376.483 45.8068 383.053 50.4765 389.306 55.4193C395.516 60.319 401.438 65.5348 407.057 71.0235C436.91 100.307 458.047 137.794 467.888 181.876C470.121 191.848 471.778 202.179 472.83 212.812C473.723 221.821 474.17 231.06 474.17 240.5H475.121C475.106 241.175 475.106 241.836 475.106 242.512C475.106 263.806 481.014 282.499 491.431 297.04C505.925 317.199 529.122 329.355 557.521 329.355H558.054C607.992 329.096 639.92 293.103 639.92 242.512C639.92 241.836 639.921 241.161 639.892 240.5C639.042 191.173 607.617 155.582 558.731 155.007V154.792C544.006 154.95 530.664 157.551 518.979 162.249C513.662 138.757 504.83 112.491 490.321 86.4984C490.321 86.4984 519.512 79.0986 558.788 76.9864V75.1186C721.715 75.5783 740.068 237.914 740.068 237.914Z" fill="#F75CAF" fill-opacity="0.7"/>
	<path d="M819 240.701C819 357.06 743.103 440.988 639.296 469.931C613.68 477.095 586.39 480.9 558.105 480.986C557.673 481 557.24 481 556.807 481C497.872 481 445.399 466.744 403.297 440.644C396.388 436.323 389.767 431.714 383.435 426.819C377.176 421.952 371.204 416.783 365.565 411.328C335.852 382.687 314.62 346.006 304.322 302.764C301.509 290.92 299.504 278.588 298.394 265.796C297.673 257.627 297.298 249.257 297.298 240.701H296.302C295.956 219.769 290.086 201.336 279.686 186.979C265.393 167.253 242.574 155.266 213.843 155.266C165.538 155.266 132.263 191.645 131.397 240.701C131.354 241.203 131.354 241.706 131.354 242.208V242.711C131.354 293.432 164.874 329.482 213.843 329.482C227.242 329.482 239.372 326.926 249.93 322.203C254.589 345.145 262.335 370.771 275.056 396.153C275.056 396.153 34.4128 464.275 35.3936 242.208C35.3936 241.72 35.3935 241.203 35.408 240.701C37.5138 16.8258 270.483 73.5765 270.483 73.5765C270.483 73.5765 377.45 100.524 385.988 238.117C394.527 375.724 502.228 405.987 558.149 405.987C614.069 405.987 727.568 374.13 727.568 238.117C727.568 238.117 722.549 76.6637 560.529 75.4721V77.2666C520.647 79.2909 490.877 86.8281 490.877 86.8281C478.025 63.8146 460.674 40.9734 437.365 20.5154C474.982 7.3218 516.724 0.186634 560.529 0V0.40198C710.88 0.847032 819 94.8821 819 240.701Z" fill="#F75CAF" fill-opacity="0.7"/>
</svg>
